<svg width="32" height="32" viewBox="0 0 32 32" fill="none" xmlns="http://www.w3.org/2000/svg">
<path d="M0 8C0 3.58172 3.58172 0 8 0H24C28.4183 0 32 3.58172 32 8V24C32 28.4183 28.4183 32 24 32H8C3.58172 32 0 28.4183 0 24V8Z" fill="#0065C3"/>
<path d="M9.17926 8.92476L24.4 18.5992L24.089 19.056L8.86824 9.38155L9.17926 8.92476Z" fill="white"/>
<path d="M17.557 9.91334L19.2613 4.62544L19.8319 4.81871L18.1275 10.1066L17.557 9.91334Z" fill="white"/>
<path d="M11.9912 27.1813L13.6954 21.8941L14.2659 22.0873L12.5618 27.3746L11.9912 27.1813Z" fill="white"/>
<path d="M7.91114 12.8599L23.1341 22.5304L22.823 22.9871L7.60001 13.3166L7.91114 12.8599Z" fill="white"/>
<path d="M10.0976 18.8383L18.1992 23.9877L17.8882 24.4445L9.78662 19.2951L10.0976 18.8383Z" fill="white"/>
<path d="M13.8181 7.29522L21.9196 12.4446L21.6086 12.9014L13.507 7.75201L13.8181 7.29522Z" fill="white"/>
<path fill-rule="evenodd" clip-rule="evenodd" d="M8.68993 8.56291C8.87235 8.29501 9.22258 8.21989 9.49168 8.39094L24.7124 18.0653C24.8544 18.1556 24.9541 18.3033 24.9877 18.4731C25.0212 18.6429 24.9856 18.8196 24.8893 18.961L24.5783 19.4178C24.3959 19.6857 24.0457 19.7608 23.7765 19.5898L8.55581 9.91538C8.41378 9.8251 8.31409 9.67742 8.28056 9.50761C8.24702 9.3378 8.28264 9.16109 8.37891 9.0197L8.68993 8.56291ZM17.6215 9.71273L19.2613 4.62544L19.8319 4.81871L18.1469 10.0466L21.9196 12.4446L21.6086 12.9014L13.507 7.75201L13.8181 7.29522L17.6215 9.71273ZM17.2922 8.771L14.1305 6.7614C13.8614 6.59035 13.5112 6.66548 13.3287 6.93338L13.0177 7.39016C12.9214 7.53156 12.8858 7.70826 12.9194 7.87807C12.9529 8.04788 13.0526 8.19556 13.1946 8.28584L21.2962 13.4352C21.5653 13.6063 21.9155 13.5312 22.0979 13.2633L22.409 12.8065C22.5052 12.6651 22.5409 12.4884 22.5073 12.3186C22.4738 12.1488 22.3741 12.0011 22.2321 11.9108L18.8681 9.77265L20.4006 5.01781C20.4516 4.8596 20.4398 4.68671 20.3678 4.53763C20.2958 4.38854 20.1696 4.27564 20.0173 4.22405L19.4468 4.03079C19.1338 3.92478 18.7973 4.10125 18.6925 4.42635L17.2922 8.771ZM11.4553 27.4624C11.3833 27.3133 11.3715 27.1404 11.4225 26.9822L13.0048 22.073L9.4742 19.8289C9.33217 19.7387 9.23248 19.591 9.19894 19.4212C9.1654 19.2513 9.20102 19.0746 9.2973 18.9333L9.60832 18.4765C9.79073 18.2086 10.141 18.1334 10.4101 18.3045L18.5116 23.4539C18.6537 23.5442 18.7534 23.6919 18.7869 23.8617C18.8204 24.0315 18.7848 24.2082 18.6885 24.3496L18.3775 24.8064C18.1951 25.0743 17.8449 25.1494 17.5758 24.9783L14.5807 23.0746L13.1306 27.5736C13.0258 27.8987 12.6893 28.0752 12.3763 27.9692L11.8058 27.7759C11.6535 27.7244 11.5273 27.6115 11.4553 27.4624ZM14.2513 22.1329L17.8882 24.4445L18.1992 23.9877L10.0976 18.8383L9.78662 19.2951L14.0812 22.0247L13.6954 21.8941L11.9912 27.1813L12.5618 27.3746L14.2513 22.1329ZM7.42191 12.4979C7.60432 12.2302 7.95439 12.1551 8.22344 12.326L23.4464 21.9965C23.5885 22.0867 23.6882 22.2344 23.7218 22.4043C23.7553 22.5742 23.7197 22.7509 23.6233 22.8924L23.3122 23.3491C23.1298 23.6168 22.7797 23.6919 22.5107 23.521L7.28771 13.8505C7.14561 13.7602 7.04587 13.6125 7.01232 13.4427C6.97877 13.2728 7.01443 13.096 7.11077 12.9546L7.42191 12.4979ZM24.089 19.056L24.4 18.5992L9.17926 8.92476L8.86824 9.38155L24.089 19.056ZM22.823 22.9871L23.1341 22.5304L7.91114 12.8599L7.60001 13.3166L22.823 22.9871Z" fill="white"/>
</svg>
