<svg width="109" height="16" viewBox="0 0 109 16" fill="none" xmlns="http://www.w3.org/2000/svg">
<path d="M2.93945 9.49316V13H0.888672V3.04688H4.77148C5.51888 3.04688 6.17513 3.18359 6.74023 3.45703C7.3099 3.73047 7.7474 4.12012 8.05273 4.62598C8.35807 5.12728 8.51074 5.69922 8.51074 6.3418C8.51074 7.31706 8.17578 8.08724 7.50586 8.65234C6.84049 9.21289 5.91764 9.49316 4.7373 9.49316H2.93945ZM2.93945 7.83203H4.77148C5.3138 7.83203 5.72624 7.70443 6.00879 7.44922C6.2959 7.19401 6.43945 6.82943 6.43945 6.35547C6.43945 5.86784 6.2959 5.47363 6.00879 5.17285C5.72168 4.87207 5.3252 4.71712 4.81934 4.70801H2.93945V7.83203Z" fill="#F5F6F7"/>
<path d="M14.2256 12.248C13.738 12.8405 13.0635 13.1367 12.2021 13.1367C11.4092 13.1367 10.8031 12.9089 10.3838 12.4531C9.96908 11.9974 9.75716 11.3298 9.74805 10.4502V5.60352H11.7236V10.3818C11.7236 11.152 12.0745 11.5371 12.7764 11.5371C13.4463 11.5371 13.9066 11.3047 14.1572 10.8398V5.60352H16.1396V13H14.2803L14.2256 12.248Z" fill="#F5F6F7"/>
<path d="M24.2881 9.37012C24.2881 10.5094 24.0283 11.4232 23.5088 12.1113C22.9938 12.7949 22.2965 13.1367 21.417 13.1367C20.6696 13.1367 20.0658 12.877 19.6055 12.3574V15.8438H17.6299V5.60352H19.4619L19.5303 6.32812C20.0088 5.75391 20.6331 5.4668 21.4033 5.4668C22.3148 5.4668 23.0234 5.80404 23.5293 6.47852C24.0352 7.15299 24.2881 8.08268 24.2881 9.26758V9.37012ZM22.3125 9.22656C22.3125 8.53841 22.1895 8.00749 21.9434 7.63379C21.7018 7.26009 21.3486 7.07324 20.8838 7.07324C20.264 7.07324 19.8379 7.31022 19.6055 7.78418V10.8125C19.847 11.3001 20.2777 11.5439 20.8975 11.5439C21.8408 11.5439 22.3125 10.7715 22.3125 9.22656Z" fill="#F5F6F7"/>
<path d="M29.8047 13C29.7135 12.8223 29.6475 12.6012 29.6064 12.3369C29.1279 12.8701 28.5059 13.1367 27.7402 13.1367C27.0156 13.1367 26.4141 12.9271 25.9355 12.5078C25.4616 12.0885 25.2246 11.5599 25.2246 10.9219C25.2246 10.138 25.514 9.53646 26.0928 9.11719C26.6761 8.69792 27.5169 8.486 28.6152 8.48145H29.5244V8.05762C29.5244 7.71582 29.4355 7.44238 29.2578 7.2373C29.0846 7.03223 28.8089 6.92969 28.4307 6.92969C28.098 6.92969 27.8359 7.00944 27.6445 7.16895C27.4577 7.32845 27.3643 7.5472 27.3643 7.8252H25.3887C25.3887 7.39681 25.5208 7.00033 25.7852 6.63574C26.0495 6.27116 26.4232 5.98633 26.9062 5.78125C27.3893 5.57161 27.9316 5.4668 28.5332 5.4668C29.4447 5.4668 30.167 5.69694 30.7002 6.15723C31.238 6.61296 31.5068 7.25553 31.5068 8.08496V11.291C31.5114 11.9928 31.6094 12.5238 31.8008 12.8838V13H29.8047ZM28.1709 11.626C28.4626 11.626 28.7314 11.5622 28.9775 11.4346C29.2236 11.3024 29.4059 11.127 29.5244 10.9082V9.63672H28.7861C27.7972 9.63672 27.2708 9.97852 27.207 10.6621L27.2002 10.7783C27.2002 11.0244 27.2868 11.2272 27.46 11.3867C27.6331 11.5462 27.8701 11.626 28.1709 11.626Z" fill="#F5F6F7"/>
<path d="M36.2715 9.00781L35.2051 10.1562V13H33.1543V3.04688H35.2051V7.55859L36.1074 6.32129L38.6436 3.04688H41.166L37.6318 7.46973L41.2686 13H38.8281L36.2715 9.00781Z" fill="#F5F6F7"/>
<path d="M43.9961 13H42.0137V5.60352H43.9961V13ZM41.8975 3.68945C41.8975 3.39323 41.9954 3.14941 42.1914 2.95801C42.3919 2.7666 42.6631 2.6709 43.0049 2.6709C43.3421 2.6709 43.611 2.7666 43.8115 2.95801C44.012 3.14941 44.1123 3.39323 44.1123 3.68945C44.1123 3.99023 44.0098 4.23633 43.8047 4.42773C43.6042 4.61914 43.3376 4.71484 43.0049 4.71484C42.6722 4.71484 42.4033 4.61914 42.1982 4.42773C41.9977 4.23633 41.8975 3.99023 41.8975 3.68945Z" fill="#F5F6F7"/>
<path d="M47.9951 3.78516V5.60352H49.2598V7.05273H47.9951V10.7441C47.9951 11.0176 48.0475 11.2135 48.1523 11.332C48.2572 11.4505 48.4577 11.5098 48.7539 11.5098C48.9727 11.5098 49.1663 11.4938 49.335 11.4619V12.959C48.9476 13.0775 48.5488 13.1367 48.1387 13.1367C46.7533 13.1367 46.0469 12.4372 46.0195 11.0381V7.05273H44.9395V5.60352H46.0195V3.78516H47.9951Z" fill="#F5F6F7"/>
<path d="M58.1562 10.417C58.1562 11.2243 57.9707 11.8737 57.5996 12.3652C57.2285 12.8535 56.7305 13.0977 56.1055 13.0977C55.4382 13.0977 54.9222 12.8617 54.5576 12.3896L54.5137 13H53.6836V5.5H54.5869V8.29785C54.9515 7.84538 55.4544 7.61914 56.0957 7.61914C56.737 7.61914 57.2399 7.86165 57.6045 8.34668C57.9723 8.83171 58.1562 9.49577 58.1562 10.3389V10.417ZM57.2529 10.3145C57.2529 9.69922 57.1341 9.22396 56.8965 8.88867C56.6589 8.55339 56.3171 8.38574 55.8711 8.38574C55.2754 8.38574 54.8473 8.66243 54.5869 9.21582V11.501C54.8636 12.0544 55.2949 12.3311 55.8809 12.3311C56.3138 12.3311 56.6507 12.1634 56.8916 11.8281C57.1325 11.4928 57.2529 10.9883 57.2529 10.3145Z" fill="#98A3A9"/>
<path d="M60.9688 11.6768L62.1992 7.7168H63.166L61.042 13.8154C60.7132 14.6943 60.1908 15.1338 59.4746 15.1338L59.3037 15.1191L58.9668 15.0557V14.3232L59.2109 14.3428C59.5169 14.3428 59.7546 14.2809 59.9238 14.1572C60.0964 14.0335 60.238 13.8073 60.3486 13.4785L60.5488 12.9414L58.6641 7.7168H59.6504L60.9688 11.6768Z" fill="#98A3A9"/>
<path d="M66.5986 13V5.89062H68.9229C69.6943 5.89062 70.2738 6.05013 70.6611 6.36914C71.0518 6.68815 71.2471 7.16016 71.2471 7.78516C71.2471 8.11719 71.1527 8.41178 70.9639 8.66895C70.7751 8.92285 70.5179 9.11979 70.1924 9.25977C70.5765 9.36719 70.8792 9.57227 71.1006 9.875C71.3252 10.1745 71.4375 10.5326 71.4375 10.9492C71.4375 11.5872 71.2308 12.0885 70.8174 12.4531C70.404 12.8177 69.8197 13 69.0645 13H66.5986ZM67.5361 9.6748V12.2334H69.084C69.5202 12.2334 69.8636 12.1211 70.1143 11.8965C70.3682 11.6686 70.4951 11.3561 70.4951 10.959C70.4951 10.1029 70.0296 9.6748 69.0986 9.6748H67.5361ZM67.5361 8.92285H68.9521C69.3623 8.92285 69.6895 8.82031 69.9336 8.61523C70.181 8.41016 70.3047 8.13184 70.3047 7.78027C70.3047 7.38965 70.1908 7.10645 69.9629 6.93066C69.735 6.75163 69.3883 6.66211 68.9229 6.66211H67.5361V8.92285Z" fill="#98A3A9"/>
<path d="M73.835 13H72.8975V5.89062H73.835V13Z" fill="#98A3A9"/>
<path d="M76.7646 5.89062L79.0889 11.6914L81.4131 5.89062H82.6289V13H81.6914V10.2314L81.7793 7.24316L79.4453 13H78.7275L76.3984 7.25781L76.4912 10.2314V13H75.5537V5.89062H76.7646Z" fill="#98A3A9"/>
<path d="M86.335 13.0977C85.6188 13.0977 85.0361 12.8633 84.5869 12.3945C84.1377 11.9225 83.9131 11.2926 83.9131 10.5049V10.3389C83.9131 9.81478 84.0124 9.34766 84.2109 8.9375C84.4128 8.52409 84.6927 8.20182 85.0508 7.9707C85.4121 7.73633 85.8027 7.61914 86.2227 7.61914C86.9095 7.61914 87.4434 7.84538 87.8242 8.29785C88.2051 8.75033 88.3955 9.39811 88.3955 10.2412V10.6172H84.8164C84.8294 11.138 84.9808 11.5596 85.2705 11.8818C85.5635 12.2008 85.9346 12.3604 86.3838 12.3604C86.7028 12.3604 86.973 12.2952 87.1943 12.165C87.4157 12.0348 87.6094 11.8623 87.7754 11.6475L88.3271 12.0771C87.8844 12.7575 87.2204 13.0977 86.335 13.0977ZM86.2227 8.36133C85.8581 8.36133 85.5521 8.49479 85.3047 8.76172C85.0573 9.02539 84.9043 9.39648 84.8457 9.875H87.4922V9.80664C87.4661 9.34766 87.3424 8.99284 87.1211 8.74219C86.8997 8.48828 86.6003 8.36133 86.2227 8.36133Z" fill="#98A3A9"/>
<path d="M90.4268 13H89.5234V7.7168H90.4268V13ZM89.4502 6.31543C89.4502 6.16895 89.4941 6.04525 89.582 5.94434C89.6732 5.84342 89.8066 5.79297 89.9824 5.79297C90.1582 5.79297 90.2917 5.84342 90.3828 5.94434C90.474 6.04525 90.5195 6.16895 90.5195 6.31543C90.5195 6.46191 90.474 6.58398 90.3828 6.68164C90.2917 6.7793 90.1582 6.82812 89.9824 6.82812C89.8066 6.82812 89.6732 6.7793 89.582 6.68164C89.4941 6.58398 89.4502 6.46191 89.4502 6.31543Z" fill="#98A3A9"/>
<path d="M94.9531 11.5986C94.9531 11.3545 94.8604 11.1657 94.6748 11.0322C94.4925 10.8955 94.1719 10.7783 93.7129 10.6807C93.2572 10.583 92.8942 10.4658 92.624 10.3291C92.3571 10.1924 92.1585 10.0296 92.0283 9.84082C91.9014 9.65202 91.8379 9.42741 91.8379 9.16699C91.8379 8.73405 92.0202 8.36784 92.3848 8.06836C92.7526 7.76888 93.2214 7.61914 93.791 7.61914C94.39 7.61914 94.875 7.77376 95.2461 8.08301C95.6204 8.39225 95.8076 8.78776 95.8076 9.26953H94.8994C94.8994 9.02214 94.7936 8.80892 94.582 8.62988C94.3737 8.45085 94.11 8.36133 93.791 8.36133C93.4622 8.36133 93.2051 8.43294 93.0195 8.57617C92.834 8.7194 92.7412 8.90658 92.7412 9.1377C92.7412 9.35579 92.8275 9.52018 93 9.63086C93.1725 9.74154 93.4834 9.84733 93.9326 9.94824C94.3851 10.0492 94.7513 10.1696 95.0312 10.3096C95.3112 10.4495 95.5179 10.6188 95.6514 10.8174C95.7881 11.0127 95.8564 11.252 95.8564 11.5352C95.8564 12.0072 95.6676 12.3864 95.29 12.6729C94.9124 12.9561 94.4225 13.0977 93.8203 13.0977C93.3971 13.0977 93.0228 13.0228 92.6973 12.873C92.3717 12.7233 92.1162 12.515 91.9307 12.248C91.7484 11.9779 91.6572 11.6865 91.6572 11.374H92.5605C92.5768 11.6768 92.6973 11.9176 92.9219 12.0967C93.1497 12.2725 93.4492 12.3604 93.8203 12.3604C94.1621 12.3604 94.4355 12.292 94.6406 12.1553C94.849 12.0153 94.9531 11.8298 94.9531 11.5986Z" fill="#98A3A9"/>
<path d="M98.2588 6.4375V7.7168H99.2451V8.41504H98.2588V11.6914C98.2588 11.903 98.3027 12.0625 98.3906 12.1699C98.4785 12.2741 98.6283 12.3262 98.8398 12.3262C98.944 12.3262 99.0872 12.3066 99.2695 12.2676V13C99.0319 13.0651 98.8008 13.0977 98.5762 13.0977C98.1725 13.0977 97.8682 12.9756 97.6631 12.7314C97.458 12.4873 97.3555 12.1406 97.3555 11.6914V8.41504H96.3936V7.7168H97.3555V6.4375H98.2588Z" fill="#98A3A9"/>
<path d="M102.497 13.0977C101.781 13.0977 101.198 12.8633 100.749 12.3945C100.3 11.9225 100.075 11.2926 100.075 10.5049V10.3389C100.075 9.81478 100.174 9.34766 100.373 8.9375C100.575 8.52409 100.855 8.20182 101.213 7.9707C101.574 7.73633 101.965 7.61914 102.385 7.61914C103.072 7.61914 103.605 7.84538 103.986 8.29785C104.367 8.75033 104.558 9.39811 104.558 10.2412V10.6172H100.979C100.992 11.138 101.143 11.5596 101.433 11.8818C101.726 12.2008 102.097 12.3604 102.546 12.3604C102.865 12.3604 103.135 12.2952 103.356 12.165C103.578 12.0348 103.771 11.8623 103.938 11.6475L104.489 12.0771C104.047 12.7575 103.382 13.0977 102.497 13.0977ZM102.385 8.36133C102.02 8.36133 101.714 8.49479 101.467 8.76172C101.219 9.02539 101.066 9.39648 101.008 9.875H103.654V9.80664C103.628 9.34766 103.505 8.99284 103.283 8.74219C103.062 8.48828 102.762 8.36133 102.385 8.36133Z" fill="#98A3A9"/>
<path d="M108.161 8.52734C108.024 8.50456 107.876 8.49316 107.717 8.49316C107.124 8.49316 106.722 8.74544 106.511 9.25V13H105.607V7.7168H106.486L106.501 8.32715C106.797 7.85514 107.217 7.61914 107.761 7.61914C107.937 7.61914 108.07 7.64193 108.161 7.6875V8.52734Z" fill="#98A3A9"/>
</svg>
